<svg width="19" height="19" viewBox="0 0 19 19" fill="none" xmlns="http://www.w3.org/2000/svg">
<path fill-rule="evenodd" clip-rule="evenodd" d="M9.50016 17.4173C13.8724 17.4173 17.4168 13.8729 17.4168 9.50065C17.4168 5.1284 13.8724 1.58398 9.50016 1.58398C5.12791 1.58398 1.5835 5.1284 1.5835 9.50065C1.5835 13.8729 5.12791 17.4173 9.50016 17.4173Z" stroke="#F03F35" stroke-width="2" stroke-linecap="round" stroke-linejoin="round"/>
<path d="M9.5 12.6667V9.5" stroke="#F03F35" stroke-width="2" stroke-linecap="round" stroke-linejoin="round"/>
<mask id="path-4-inside-1" fill="white">
<ellipse cx="9.50016" cy="6.33268" rx="0.791667" ry="0.791667"/>
</mask>
<ellipse cx="9.50016" cy="6.33268" rx="0.791667" ry="0.791667" fill="#F7685B"/>
<path d="M9.29183 6.33268C9.29183 6.21762 9.3851 6.12435 9.50016 6.12435V8.12435C10.4897 8.12435 11.2918 7.32219 11.2918 6.33268H9.29183ZM9.50016 6.12435C9.61522 6.12435 9.7085 6.21762 9.7085 6.33268H7.7085C7.7085 7.32219 8.51065 8.12435 9.50016 8.12435V6.12435ZM9.7085 6.33268C9.7085 6.44774 9.61522 6.54102 9.50016 6.54102V4.54102C8.51065 4.54102 7.7085 5.34317 7.7085 6.33268H9.7085ZM9.50016 6.54102C9.3851 6.54102 9.29183 6.44774 9.29183 6.33268H11.2918C11.2918 5.34317 10.4897 4.54102 9.50016 4.54102V6.54102Z" fill="#F03F35" mask="url(#path-4-inside-1)"/>
</svg>
