<svg width="160" height="160" viewBox="0 0 160 160" fill="none" xmlns="http://www.w3.org/2000/svg">
<rect x="1.31055" y="73" width="24" height="3.53338" rx="1.76669" transform="rotate(5.04234 1.31055 73)" fill="#FDC60C"/>
<rect x="1" y="82.9541" width="24" height="3.53338" rx="1.76669" transform="rotate(-2.27859 1 82.9541)" fill="#FDC60C"/>
<rect width="23.5686" height="3.46986" rx="1.73493" transform="matrix(-0.99613 0.0878919 0.0878919 0.99613 159.478 73)" fill="#FDC60C"/>
<rect width="23.5686" height="3.46986" rx="1.73493" transform="matrix(-0.999209 -0.0397584 -0.0397584 0.999209 159.782 82.7754)" fill="#FDC60C"/>
<path d="M52.0194 21.5C43.5193 13 31.0193 12 31.0193 12C31.0193 12 21.519 24.5 22.019 38.5C22.519 52.5 32.0193 71.5 32.0193 71.5L69.0194 46C69.0194 46 60.5195 30 52.0194 21.5Z" fill="#FDC60C"/>
<path d="M110.993 21.5798C119.49 13.0084 131.984 12 131.984 12C131.984 12 141.481 24.605 140.981 38.7227C140.481 52.8403 130.985 72 130.985 72L94 46.2857C94 46.2857 102.496 30.1513 110.993 21.5798Z" fill="#FDC60C"/>
<circle cx="81.5" cy="87.5" r="61.5" fill="#FEC50F"/>
<circle cx="77.5" cy="83.5" r="57.5" fill="#FFD536"/>
<rect width="21" height="4" rx="2" transform="matrix(-4.37114e-08 -1 -1 4.37114e-08 83 97)" fill="#633802"/>
<rect width="21" height="4" rx="2" transform="matrix(-4.37114e-08 -1 -1 4.37114e-08 83 97)" fill="#633802"/>
<rect width="26" height="4" transform="matrix(1 0 0 -1 68 98)" fill="#633802"/>
<rect width="26" height="4" transform="matrix(1 0 0 -1 68 98)" fill="#633802"/>
<path d="M81 73C76 73 72 77 72 78.5C72 80 79 85.5 81 85.5C83 85.5 89.5 79.5 89.5 78C89.5 76.5 86 73 81 73Z" fill="#633802"/>
<path d="M53.5 53.4997C47.5 52.9998 39 57.4997 39 57.4997C39 57.4997 45 56.4998 47.5 57.4999C48.7431 57.9971 49.567 59.8839 50 61.4999C50.4379 63.1339 51.4889 64.4971 53.5 64.9999C57.5 65.9999 60.5 63.4999 61 60.4998C61.5 57.4997 59.5 53.9996 53.5 53.4997Z" fill="#633801"/>
<path d="M108.5 54.0388C102.5 53.5388 94 58.0388 94 58.0388C94 58.0388 100 57.0388 102.5 58.0389C103.743 58.5362 104.567 60.423 105 62.0389C105.438 63.673 106.489 65.0361 108.5 65.5389C112.5 66.5389 115.5 64.0389 116 61.0388C116.5 58.0388 114.5 54.5387 108.5 54.0388Z" fill="#633801"/>
</svg>
