<svg width="160" height="160" viewBox="0 0 160 160" fill="none" xmlns="http://www.w3.org/2000/svg">
<rect x="1.31055" y="73" width="24" height="3.53338" rx="1.76669" transform="rotate(5.04234 1.31055 73)" fill="#FDC60C"/>
<rect x="1" y="82.9541" width="24" height="3.53338" rx="1.76669" transform="rotate(-2.27859 1 82.9541)" fill="#FDC60C"/>
<rect width="23.5686" height="3.46986" rx="1.73493" transform="matrix(-0.99613 0.0878919 0.0878919 0.99613 159.478 73)" fill="#FDC60C"/>
<rect width="23.5686" height="3.46986" rx="1.73493" transform="matrix(-0.999209 -0.0397584 -0.0397584 0.999209 159.782 82.7754)" fill="#FDC60C"/>
<path d="M52.0194 21.5C43.5193 13 31.0193 12 31.0193 12C31.0193 12 21.519 24.5 22.019 38.5C22.519 52.5 32.0193 71.5 32.0193 71.5L69.0194 46C69.0194 46 60.5195 30 52.0194 21.5Z" fill="#FDC60C"/>
<path d="M110.993 21.5798C119.49 13.0084 131.984 12 131.984 12C131.984 12 141.481 24.605 140.981 38.7227C140.481 52.8403 130.985 72 130.985 72L94 46.2857C94 46.2857 102.496 30.1513 110.993 21.5798Z" fill="#FDC60C"/>
<circle cx="81.5" cy="87.5" r="61.5" fill="#FEC50F"/>
<circle cx="78" cy="84" r="58" fill="#FFD536"/>
<rect width="23.5686" height="4.35956" rx="2.17978" transform="matrix(-4.37114e-08 -1 -1 4.37114e-08 83.3594 100.568)" fill="#633802"/>
<rect width="23.5686" height="4.35956" rx="2.17978" transform="matrix(-4.37114e-08 -1 -1 4.37114e-08 83.3594 100.568)" fill="#633802"/>
<path d="M81 74.5C76 74.5 72 78.5 72 80C72 81.5 79 87 81 87C83 87 89.5 81 89.5 79.5C89.5 78 86 74.5 81 74.5Z" fill="#633802"/>
<path d="M81.1321 99.3404C80.0464 99.1695 79.3029 98.1134 79.7815 97.124C80.0393 96.591 80.3582 96.0815 80.7343 95.6039C81.5396 94.5813 82.5873 93.7304 83.8025 93.1119C85.0177 92.4933 86.3705 92.1224 87.7644 92.0255C89.1582 91.9287 90.5588 92.1083 91.8662 92.5515C93.1736 92.9947 94.3555 93.6907 95.3276 94.5897C96.2997 95.4888 97.0381 96.5687 97.49 97.7524C97.9419 98.9362 98.0963 100.195 97.942 101.438C97.8564 102.128 97.6771 102.803 97.4095 103.45C97.0398 104.344 95.9516 104.59 95.1036 104.125C94.1279 103.589 93.8767 102.312 94.053 101.213C94.0615 101.16 94.069 101.107 94.0756 101.054C94.1667 100.32 94.0756 99.5766 93.8087 98.8775C93.5419 98.1785 93.1058 97.5408 92.5318 97.0099C91.9577 96.479 91.2598 96.068 90.4878 95.8063C89.7158 95.5446 88.8887 95.4385 88.0656 95.4957C87.2425 95.5529 86.4436 95.772 85.726 96.1372C85.0085 96.5025 84.3898 97.0049 83.9143 97.6088C83.8345 97.7101 83.7591 97.8138 83.6881 97.9198C83.1084 98.7852 82.161 99.5023 81.1321 99.3404Z" fill="#633802"/>
<path d="M81.1321 99.3404C80.0464 99.1695 79.3029 98.1134 79.7815 97.124C80.0393 96.591 80.3582 96.0815 80.7343 95.6039C81.5396 94.5813 82.5873 93.7304 83.8025 93.1119C85.0177 92.4933 86.3705 92.1224 87.7644 92.0255C89.1582 91.9287 90.5588 92.1083 91.8662 92.5515C93.1736 92.9947 94.3555 93.6907 95.3276 94.5897C96.2997 95.4888 97.0381 96.5687 97.49 97.7524C97.9419 98.9362 98.0963 100.195 97.942 101.438C97.8564 102.128 97.6771 102.803 97.4095 103.45C97.0398 104.344 95.9516 104.59 95.1036 104.125C94.1279 103.589 93.8767 102.312 94.053 101.213C94.0615 101.16 94.069 101.107 94.0756 101.054C94.1667 100.32 94.0756 99.5766 93.8087 98.8775C93.5419 98.1785 93.1058 97.5408 92.5318 97.0099C91.9577 96.479 91.2598 96.068 90.4878 95.8063C89.7158 95.5446 88.8887 95.4385 88.0656 95.4957C87.2425 95.5529 86.4436 95.772 85.726 96.1372C85.0085 96.5025 84.3898 97.0049 83.9143 97.6088C83.8345 97.7101 83.7591 97.8138 83.6881 97.9198C83.1084 98.7852 82.161 99.5023 81.1321 99.3404Z" fill="#633802"/>
<path d="M81.1321 99.3404C80.0464 99.1695 79.3029 98.1134 79.7815 97.124C80.0393 96.591 80.3582 96.0815 80.7343 95.6039C81.5396 94.5813 82.5873 93.7304 83.8025 93.1119C85.0177 92.4933 86.3705 92.1224 87.7644 92.0255C89.1582 91.9287 90.5588 92.1083 91.8662 92.5515C93.1736 92.9947 94.3555 93.6907 95.3276 94.5897C96.2997 95.4888 97.0381 96.5687 97.49 97.7524C97.9419 98.9362 98.0963 100.195 97.942 101.438C97.8564 102.128 97.6771 102.803 97.4095 103.45C97.0398 104.344 95.9516 104.59 95.1036 104.125C94.1279 103.589 93.8767 102.312 94.053 101.213C94.0615 101.16 94.069 101.107 94.0756 101.054C94.1667 100.32 94.0756 99.5766 93.8087 98.8775C93.5419 98.1785 93.1058 97.5408 92.5318 97.0099C91.9577 96.479 91.2598 96.068 90.4878 95.8063C89.7158 95.5446 88.8887 95.4385 88.0656 95.4957C87.2425 95.5529 86.4436 95.772 85.726 96.1372C85.0085 96.5025 84.3898 97.0049 83.9143 97.6088C83.8345 97.7101 83.7591 97.8138 83.6881 97.9198C83.1084 98.7852 82.161 99.5023 81.1321 99.3404Z" fill="#633802"/>
<path d="M80.8679 99.3404C81.9536 99.1695 82.6971 98.1134 82.2185 97.124C81.9607 96.591 81.6418 96.0815 81.2657 95.6039C80.4604 94.5813 79.4127 93.7304 78.1975 93.1119C76.9823 92.4933 75.6295 92.1224 74.2356 92.0255C72.8418 91.9287 71.4412 92.1083 70.1338 92.5515C68.8264 92.9947 67.6445 93.6907 66.6724 94.5897C65.7003 95.4888 64.9619 96.5687 64.51 97.7524C64.0581 98.9362 63.9037 100.195 64.058 101.438C64.1436 102.128 64.3229 102.803 64.5905 103.45C64.9602 104.344 66.0484 104.59 66.8964 104.125C67.8721 103.589 68.1233 102.312 67.947 101.213C67.9385 101.16 67.931 101.107 67.9244 101.054C67.8333 100.32 67.9244 99.5766 68.1913 98.8775C68.4581 98.1785 68.8942 97.5408 69.4682 97.0099C70.0423 96.479 70.7402 96.068 71.5122 95.8063C72.2842 95.5446 73.1113 95.4385 73.9344 95.4957C74.7575 95.5529 75.5564 95.772 76.274 96.1372C76.9915 96.5025 77.6102 97.0049 78.0857 97.6088C78.1655 97.7101 78.2409 97.8138 78.3119 97.9198C78.8916 98.7852 79.839 99.5023 80.8679 99.3404Z" fill="#633802"/>
<path d="M80.8679 99.3404C81.9536 99.1695 82.6971 98.1134 82.2185 97.124C81.9607 96.591 81.6418 96.0815 81.2657 95.6039C80.4604 94.5813 79.4127 93.7304 78.1975 93.1119C76.9823 92.4933 75.6295 92.1224 74.2356 92.0255C72.8418 91.9287 71.4412 92.1083 70.1338 92.5515C68.8264 92.9947 67.6445 93.6907 66.6724 94.5897C65.7003 95.4888 64.9619 96.5687 64.51 97.7524C64.0581 98.9362 63.9037 100.195 64.058 101.438C64.1436 102.128 64.3229 102.803 64.5905 103.45C64.9602 104.344 66.0484 104.59 66.8964 104.125C67.8721 103.589 68.1233 102.312 67.947 101.213C67.9385 101.16 67.931 101.107 67.9244 101.054C67.8333 100.32 67.9244 99.5766 68.1913 98.8775C68.4581 98.1785 68.8942 97.5408 69.4682 97.0099C70.0423 96.479 70.7402 96.068 71.5122 95.8063C72.2842 95.5446 73.1113 95.4385 73.9344 95.4957C74.7575 95.5529 75.5564 95.772 76.274 96.1372C76.9915 96.5025 77.6102 97.0049 78.0857 97.6088C78.1655 97.7101 78.2409 97.8138 78.3119 97.9198C78.8916 98.7852 79.839 99.5023 80.8679 99.3404Z" fill="#633802"/>
<path d="M80.8679 99.3404C81.9536 99.1695 82.6971 98.1134 82.2185 97.124C81.9607 96.591 81.6418 96.0815 81.2657 95.6039C80.4604 94.5813 79.4127 93.7304 78.1975 93.1119C76.9823 92.4933 75.6295 92.1224 74.2356 92.0255C72.8418 91.9287 71.4412 92.1083 70.1338 92.5515C68.8264 92.9947 67.6445 93.6907 66.6724 94.5897C65.7003 95.4888 64.9619 96.5687 64.51 97.7524C64.0581 98.9362 63.9037 100.195 64.058 101.438C64.1436 102.128 64.3229 102.803 64.5905 103.45C64.9602 104.344 66.0484 104.59 66.8964 104.125C67.8721 103.589 68.1233 102.312 67.947 101.213C67.9385 101.16 67.931 101.107 67.9244 101.054C67.8333 100.32 67.9244 99.5766 68.1913 98.8775C68.4581 98.1785 68.8942 97.5408 69.4682 97.0099C70.0423 96.479 70.7402 96.068 71.5122 95.8063C72.2842 95.5446 73.1113 95.4385 73.9344 95.4957C74.7575 95.5529 75.5564 95.772 76.274 96.1372C76.9915 96.5025 77.6102 97.0049 78.0857 97.6088C78.1655 97.7101 78.2409 97.8138 78.3119 97.9198C78.8916 98.7852 79.839 99.5023 80.8679 99.3404Z" fill="#633802"/>
<path d="M37.5 130.5V70.5003L55 68.2217V143C55 143 49.4287 140.322 45 137C40.5713 133.679 37.5 130.5 37.5 130.5Z" fill="#66C7D0"/>
<path d="M124 132V71.4503L106 67V144C106 144 111.755 141.345 116.5 138C121.245 134.655 124 132 124 132Z" fill="#66C7D0"/>
<rect width="23.5686" height="4.35956" rx="2.17978" transform="matrix(-0.965926 -0.258819 -0.258819 0.965926 127.915 68.6387)" fill="#633802"/>
<rect width="23.5686" height="4.35956" rx="2.17978" transform="matrix(-0.965926 -0.258819 -0.258819 0.965926 127.915 68.6387)" fill="#633802"/>
<rect width="23.5686" height="4.35956" rx="2.17978" transform="matrix(-0.991509 0.13004 0.13004 0.991509 57.2339 63.6289)" fill="#633802"/>
<rect width="23.5686" height="4.35956" rx="2.17978" transform="matrix(-0.991509 0.13004 0.13004 0.991509 57.2339 63.6289)" fill="#633802"/>
</svg>
