<svg width="160" height="160" viewBox="0 0 160 160" fill="none" xmlns="http://www.w3.org/2000/svg">
<rect x="1.31055" y="73" width="24" height="3.53338" rx="1.76669" transform="rotate(5.04234 1.31055 73)" fill="#FDC60C"/>
<rect x="1" y="82.9541" width="24" height="3.53338" rx="1.76669" transform="rotate(-2.27859 1 82.9541)" fill="#FDC60C"/>
<rect width="23.5686" height="3.46986" rx="1.73493" transform="matrix(-0.99613 0.0878919 0.0878919 0.99613 159.478 73)" fill="#FDC60C"/>
<rect width="23.5686" height="3.46986" rx="1.73493" transform="matrix(-0.999209 -0.0397584 -0.0397584 0.999209 159.782 82.7754)" fill="#FDC60C"/>
<path d="M52.0194 21.5C43.5193 13 31.0193 12 31.0193 12C31.0193 12 21.519 24.5 22.019 38.5C22.519 52.5 32.0193 71.5 32.0193 71.5L69.0194 46C69.0194 46 60.5195 30 52.0194 21.5Z" fill="#FDC60C"/>
<path d="M110.993 21.5798C119.49 13.0084 131.984 12 131.984 12C131.984 12 141.481 24.605 140.981 38.7227C140.481 52.8403 130.985 72 130.985 72L94 46.2857C94 46.2857 102.496 30.1513 110.993 21.5798Z" fill="#FDC60C"/>
<circle cx="81.5" cy="87.5" r="61.5" fill="#FEC50F"/>
<circle cx="78" cy="84" r="58" fill="#FFD536"/>
<path d="M61.799 54C63.0146 54 64.0222 53.0049 63.7806 51.8136C63.3541 49.7108 62.3179 47.7616 60.7782 46.2218C58.7153 44.1589 55.9174 43 53 43C50.0826 43 47.2847 44.1589 45.2218 46.2218C43.6821 47.7616 42.6459 49.7108 42.2194 51.8136C41.9778 53.0049 42.9854 54 44.201 54C45.4166 54 46.3677 52.9881 46.7657 51.8395C47.0895 50.9054 47.6221 50.0469 48.3345 49.3345C49.5719 48.0971 51.2501 47.402 53 47.402C54.7499 47.402 56.4281 48.0971 57.6655 49.3345C58.3779 50.0469 58.9105 50.9054 59.2343 51.8395C59.6323 52.9881 60.5834 54 61.799 54Z" fill="#633802"/>
<path d="M116.799 55C118.015 55 119.022 54.0049 118.781 52.8136C118.354 50.7108 117.318 48.7616 115.778 47.2218C113.715 45.1589 110.917 44 108 44C105.083 44 102.285 45.1589 100.222 47.2218C98.6821 48.7616 97.6459 50.7108 97.2194 52.8136C96.9778 54.0049 97.9854 55 99.201 55C100.417 55 101.368 53.9881 101.766 52.8395C102.089 51.9054 102.622 51.0469 103.334 50.3345C104.572 49.0971 106.25 48.402 108 48.402C109.75 48.402 111.428 49.0971 112.666 50.3345C113.378 51.0469 113.911 51.9054 114.234 52.8395C114.632 53.9881 115.583 55 116.799 55Z" fill="#633802"/>
<rect width="16" height="4" rx="2" transform="matrix(-4.37114e-08 -1 -1 4.37114e-08 83 77)" fill="#633802"/>
<rect width="16" height="4" rx="2" transform="matrix(-4.37114e-08 -1 -1 4.37114e-08 83 77)" fill="#633802"/>
<path d="M81 58C76 58 72 62 72 63.5C72 65 79 70.5 81 70.5C83 70.5 89.5 64.5 89.5 63C89.5 61.5 86 58 81 58Z" fill="#633802"/>
<path d="M96.8243 70.3638C97.7368 70.0564 98.7423 70.5475 98.8868 71.4995C99.0183 72.3663 99.0357 73.2492 98.9365 74.1254C98.7716 75.5811 98.2889 76.9829 97.5224 78.2314C96.756 79.48 95.7246 80.5449 94.5012 81.3509C93.2777 82.1568 91.8922 82.6841 90.4425 82.8954C88.9927 83.1067 87.5143 82.997 86.1117 82.5738C84.7091 82.1507 83.4166 81.4245 82.3256 80.4467C81.2347 79.4689 80.3719 78.2633 79.7983 76.9152C79.4531 76.1038 79.2177 75.2527 79.0963 74.3843C78.963 73.4307 79.7864 72.673 80.7487 72.7072C81.711 72.7413 82.4403 73.5619 82.6619 74.4989C82.7467 74.8574 82.8619 75.2091 83.007 75.5499C83.3806 76.4279 83.9425 77.2131 84.653 77.85C85.3636 78.4868 86.2054 78.9598 87.1189 79.2354C88.0324 79.511 88.9953 79.5825 89.9395 79.4448C90.8837 79.3072 91.7861 78.9638 92.5829 78.4389C93.3797 77.914 94.0514 77.2204 94.5506 76.4072C95.0498 75.594 95.3642 74.6811 95.4716 73.733C95.5133 73.3649 95.5233 72.995 95.5023 72.6272C95.4471 71.6659 95.9118 70.6713 96.8243 70.3638Z" fill="#633802"/>
<path d="M65.2498 70.3888C64.2963 70.0676 63.245 70.581 63.1018 71.5769C62.9807 72.4188 62.9672 73.2753 63.0635 74.1254C63.2284 75.5811 63.7111 76.9829 64.4776 78.2314C65.244 79.48 66.2754 80.5449 67.4988 81.3509C68.7223 82.1568 70.1078 82.6841 71.5575 82.8954C73.0073 83.1067 74.4857 82.997 75.8883 82.5738C77.2909 82.1507 78.5834 81.4245 79.6744 80.4467C80.7653 79.4689 81.6281 78.2633 82.2017 76.9152C82.5367 76.1279 82.7682 75.3032 82.8926 74.4618C83.0397 73.4664 82.1786 72.6743 81.1731 72.7099C80.1676 72.7456 79.4071 73.605 79.1571 74.5795C79.0777 74.8891 78.9749 75.193 78.8491 75.4887C78.4845 76.3456 77.936 77.1119 77.2426 77.7335C76.5491 78.355 75.7275 78.8166 74.836 79.0856C73.9444 79.3546 73.0046 79.4244 72.0831 79.29C71.1616 79.1557 70.2808 78.8205 69.5032 78.3082C68.7255 77.7959 68.0699 77.119 67.5827 76.3254C67.0955 75.5317 66.7887 74.6407 66.6839 73.7154C66.6477 73.3961 66.6359 73.0754 66.6482 72.7561C66.6868 71.7507 66.2033 70.71 65.2498 70.3888Z" fill="#633802"/>
<circle cx="40" cy="72" r="9" fill="url(#paint0_radial)"/>
<circle cx="117" cy="72" r="9" fill="url(#paint1_radial)"/>
<defs>
<radialGradient id="paint0_radial" cx="0" cy="0" r="1" gradientUnits="userSpaceOnUse" gradientTransform="translate(40 72) rotate(90) scale(9)">
<stop stop-color="#F3971E" stop-opacity="0.78"/>
<stop offset="1" stop-color="#F3971E" stop-opacity="0"/>
</radialGradient>
<radialGradient id="paint1_radial" cx="0" cy="0" r="1" gradientUnits="userSpaceOnUse" gradientTransform="translate(117 72) rotate(90) scale(9)">
<stop stop-color="#F3971E" stop-opacity="0.78"/>
<stop offset="1" stop-color="#F3971E" stop-opacity="0"/>
</radialGradient>
</defs>
</svg>
