<svg width="19" height="19" viewBox="0 0 19 19" fill="none" xmlns="http://www.w3.org/2000/svg">
<path fill-rule="evenodd" clip-rule="evenodd" d="M9.49968 17.4163C13.8719 17.4163 17.4163 13.8719 17.4163 9.49968C17.4163 5.12742 13.8719 1.58301 9.49968 1.58301C5.12742 1.58301 1.58301 5.12742 1.58301 9.49968C1.58301 13.8719 5.12742 17.4163 9.49968 17.4163Z" stroke="#FFD536" stroke-width="2" stroke-linecap="round" stroke-linejoin="round"/>
<path d="M9.5 12.6667V9.5" stroke="#FFD536" stroke-width="2" stroke-linecap="round" stroke-linejoin="round"/>
<mask id="path-4-inside-1" fill="white">
<ellipse cx="9.49967" cy="6.33366" rx="0.791667" ry="0.791667"/>
</mask>
<ellipse cx="9.49967" cy="6.33366" rx="0.791667" ry="0.791667" fill="#F7685B"/>
<path d="M9.29134 6.33366C9.29134 6.2186 9.38461 6.12533 9.49967 6.12533V8.12533C10.4892 8.12533 11.2913 7.32317 11.2913 6.33366H9.29134ZM9.49967 6.12533C9.61473 6.12533 9.70801 6.2186 9.70801 6.33366H7.70801C7.70801 7.32317 8.51016 8.12533 9.49967 8.12533V6.12533ZM9.70801 6.33366C9.70801 6.44872 9.61473 6.54199 9.49967 6.54199V4.54199C8.51016 4.54199 7.70801 5.34415 7.70801 6.33366H9.70801ZM9.49967 6.54199C9.38461 6.54199 9.29134 6.44872 9.29134 6.33366H11.2913C11.2913 5.34415 10.4892 4.54199 9.49967 4.54199V6.54199Z" fill="#FFD536" mask="url(#path-4-inside-1)"/>
</svg>
