<svg width="160" height="160" viewBox="0 0 160 160" fill="none" xmlns="http://www.w3.org/2000/svg">
<rect x="1.31055" y="73" width="24" height="3.53338" rx="1.76669" transform="rotate(5.04234 1.31055 73)" fill="#FDC60C"/>
<rect x="1" y="82.9541" width="24" height="3.53338" rx="1.76669" transform="rotate(-2.27859 1 82.9541)" fill="#FDC60C"/>
<rect width="23.5686" height="3.46986" rx="1.73493" transform="matrix(-0.99613 0.0878919 0.0878919 0.99613 159.478 73)" fill="#FDC60C"/>
<rect width="23.5686" height="3.46986" rx="1.73493" transform="matrix(-0.999209 -0.0397584 -0.0397584 0.999209 159.782 82.7754)" fill="#FDC60C"/>
<path d="M52.0194 21.5C43.5193 13 31.0193 12 31.0193 12C31.0193 12 21.519 24.5 22.019 38.5C22.519 52.5 32.0193 71.5 32.0193 71.5L69.0194 46C69.0194 46 60.5195 30 52.0194 21.5Z" fill="#FDC60C"/>
<path d="M110.993 21.5798C119.49 13.0084 131.984 12 131.984 12C131.984 12 141.481 24.605 140.981 38.7227C140.481 52.8403 130.985 72 130.985 72L94 46.2857C94 46.2857 102.496 30.1513 110.993 21.5798Z" fill="#FDC60C"/>
<circle cx="81.5" cy="87.5" r="61.5" fill="#FEC50F"/>
<circle cx="78" cy="84" r="58" fill="#FFD536"/>
<path d="M88 105C86 103.5 81 94.5 81 94.5C81 94.5 77.5 102 74 105C70.5 108 60 110 60 110C60 110 66 120.5 80 121C94 121.5 99.5 111 99.5 111C99.5 111 90 106.5 88 105Z" fill="#633802"/>
<path d="M61.799 54C63.0146 54 64.0222 53.0049 63.7806 51.8136C63.3541 49.7108 62.3179 47.7616 60.7782 46.2218C58.7153 44.1589 55.9174 43 53 43C50.0826 43 47.2847 44.1589 45.2218 46.2218C43.6821 47.7616 42.6459 49.7108 42.2194 51.8136C41.9778 53.0049 42.9854 54 44.201 54C45.4166 54 46.3677 52.9881 46.7657 51.8395C47.0895 50.9054 47.6221 50.0469 48.3345 49.3345C49.5719 48.0971 51.2501 47.402 53 47.402C54.7499 47.402 56.4281 48.0971 57.6655 49.3345C58.3779 50.0469 58.9105 50.9054 59.2343 51.8395C59.6323 52.9881 60.5834 54 61.799 54Z" fill="#633802"/>
<circle cx="39" cy="80" r="9" fill="url(#paint0_radial)"/>
<circle cx="124" cy="83" r="9" fill="url(#paint1_radial)"/>
<rect width="28" height="5" rx="2.5" transform="matrix(-4.37114e-08 -1 -1 4.37114e-08 83.5 99)" fill="#633802"/>
<rect width="28" height="5" rx="2.5" transform="matrix(-4.37114e-08 -1 -1 4.37114e-08 83.5 99)" fill="#633802"/>
<path d="M81 68C76 68 72 72 72 73.5C72 75 79 80.5 81 80.5C83 80.5 89.5 74.5 89.5 73C89.5 71.5 86 68 81 68Z" fill="#633802"/>
<path d="M124.76 87.1359C125.966 87.075 127.002 88.0075 126.951 89.2143C126.838 91.8943 126.285 94.5432 125.312 97.0523C124.074 100.243 122.184 103.135 119.764 105.54C117.344 107.946 114.45 109.809 111.271 111.008C108.092 112.208 104.7 112.716 101.316 112.501C97.9328 112.286 94.6345 111.351 91.6373 109.758C88.6401 108.165 86.0116 105.95 83.9239 103.258C81.8363 100.566 80.3365 97.458 79.5229 94.1367C78.8824 91.5226 78.6785 88.823 78.9144 86.1483C79.0202 84.9478 80.1645 84.1582 81.3507 84.3712C82.5356 84.584 83.3114 85.7171 83.2291 86.9181C83.0877 88.9799 83.2647 91.055 83.7579 93.0682C84.4242 95.7877 85.6522 98.3329 87.3616 100.537C89.071 102.741 91.2232 104.555 93.6773 105.859C96.1315 107.163 98.8322 107.929 101.603 108.105C104.373 108.281 107.151 107.865 109.754 106.883C112.357 105.901 114.726 104.375 116.708 102.406C118.689 100.436 120.237 98.068 121.25 95.4555C122.001 93.5199 122.446 91.4826 122.573 89.4181C122.647 88.2186 123.559 87.1965 124.76 87.1359Z" fill="#633802"/>
<path d="M37.9308 83.9646C36.7611 83.7426 35.6236 84.5135 35.5111 85.6988C35.2603 88.3407 35.4453 91.0114 36.0632 93.6012C36.8484 96.8919 38.3149 99.9772 40.3661 102.654C42.4172 105.331 45.0066 107.539 47.9636 109.132C50.9206 110.724 54.1781 111.667 57.5217 111.896C60.8653 112.125 64.2191 111.637 67.3622 110.462C70.5053 109.288 73.3664 107.454 75.7571 105.082C78.1478 102.71 80.0139 99.8532 81.2324 96.7C82.1922 94.2163 82.7332 91.593 82.8377 88.9389C82.8844 87.7518 81.8643 86.8365 80.6778 86.8965C79.4929 86.9564 78.5928 87.9671 78.5231 89.1514C78.4028 91.1931 77.967 93.2077 77.2276 95.1211C76.2298 97.703 74.7019 100.042 72.7443 101.984C70.7868 103.927 68.4441 105.428 65.8705 106.39C63.2969 107.352 60.5508 107.752 57.8131 107.564C55.0753 107.376 52.408 106.605 49.9868 105.3C47.5656 103.996 45.4454 102.188 43.7659 99.9964C42.0863 97.8046 40.8856 95.2782 40.2427 92.5838C39.7658 90.5854 39.6039 88.5282 39.7586 86.4874C39.8482 85.3062 39.0946 84.1853 37.9308 83.9646Z" fill="#633802"/>
<path d="M81 121C73.5 121 68 117.5 68 117.5C68 117.5 71.5 110 81 110C90.5 110 93.5 117.5 93.5 117.5C93.5 117.5 88.5 121 81 121Z" fill="#F56961"/>
<path d="M65.3817 27.2282C55.3817 25.2282 52 37.0115 49.3814 37.7282C46.7628 38.445 33.7565 34.2283 28.8814 40.7282C24.0064 47.2282 24.8815 55.5977 34.8816 64.7282C44.8818 73.8588 64.3819 73.7281 64.3819 73.7281C64.3819 73.7281 75.8819 61.7282 76.3819 49.2281C76.8819 36.7279 75.3817 29.2282 65.3817 27.2282Z" fill="#D03027"/>
<path d="M55.8437 41.0117C52.6873 42.5117 39.8438 40.0117 36.3438 51.0117C34.5302 56.7117 40.1145 65.7129 47.8439 70.0117C55.0311 74.009 63.8439 74.0117 63.8439 74.0117C63.8439 74.0117 78 62.5002 78.8439 49.5117C79.6879 36.5232 72.8435 28.0117 67.3437 28.0117C61.8439 28.0117 59.0001 39.5117 55.8437 41.0117Z" fill="#F03F35"/>
<path d="M130.928 43.0085C125.271 34.5232 114.548 40.464 112.189 39.1191C109.831 37.7743 103.616 25.5958 95.5723 26.7448C87.529 27.8938 82.2297 34.4307 82.8446 47.9581C83.4595 61.4856 97.3405 75.1818 97.3405 75.1818C97.3405 75.1818 113.957 74.8284 123.15 66.343C132.342 57.8576 136.585 51.4938 130.928 43.0085Z" fill="#F03F35"/>
<path d="M114.437 46.0101C111.145 44.8389 103.831 33.9894 93.5778 39.2927C88.2649 42.0408 85.8488 52.3542 88.2746 60.8595C90.5302 68.7681 96.7599 75.0017 96.7599 75.0017C96.7599 75.0017 114.91 76.8717 124.691 68.2842C134.472 59.6966 135.65 48.8384 131.761 44.9495C127.873 41.0606 117.73 47.1814 114.437 46.0101Z" fill="#F03F35"/>
<defs>
<radialGradient id="paint0_radial" cx="0" cy="0" r="1" gradientUnits="userSpaceOnUse" gradientTransform="translate(39 80) rotate(90) scale(9)">
<stop stop-color="#F3971E"/>
<stop offset="1" stop-color="#F3971E" stop-opacity="0"/>
</radialGradient>
<radialGradient id="paint1_radial" cx="0" cy="0" r="1" gradientUnits="userSpaceOnUse" gradientTransform="translate(124 83) rotate(90) scale(9)">
<stop stop-color="#F3971E"/>
<stop offset="1" stop-color="#F3971E" stop-opacity="0"/>
</radialGradient>
</defs>
</svg>
