<svg width="183" height="19" viewBox="0 0 183 19" fill="none" xmlns="http://www.w3.org/2000/svg">
<path d="M11.135 4.046H0V14.467H2.941V6.528H8.194V14.467H11.135V4.046Z" fill="#FFFFFF"/>
<path d="M20.7563 3.74C19.2773 3.74 18.0193 4.216 17.1353 5.168V4.046H14.1943V18.7H17.1353V13.362C18.0193 14.314 19.2773 14.773 20.7563 14.773C24.1563 14.773 26.7233 12.716 26.7233 9.265C26.7233 5.814 24.4283 3.74 20.7563 3.74ZM20.3823 12.223C18.3593 12.223 16.8973 11.186 16.8973 9.265C16.8973 7.344 18.3593 6.29 20.3823 6.29C22.3883 6.29 23.6633 7.293 23.6633 9.265C23.6633 11.237 22.1503 12.223 20.3823 12.223Z" fill="#FFFFFF"/>
<path d="M41.7936 9.265C41.7936 5.984 39.1586 3.74 35.4016 3.74C31.6446 3.74 29.0096 5.984 29.0096 9.248C29.0096 12.529 31.6446 14.773 35.4016 14.773C39.1586 14.773 41.7936 12.529 41.7936 9.265ZM35.4016 12.223C33.3616 12.223 32.0696 11.101 32.0696 9.248C32.0696 7.412 33.3616 6.29 35.4016 6.29C37.4416 6.29 38.7336 7.412 38.7336 9.248C38.7336 11.101 37.4416 12.223 35.4016 12.223Z" fill="#FFFFFF"/>
<path d="M55.5608 4.046H44.4258V14.467H47.3668V6.528H52.6198V14.467H55.5608V4.046Z" fill="#FFFFFF"/>
<path d="M65.1821 3.74C63.7031 3.74 62.4451 4.216 61.5611 5.168V4.046H58.6201V18.7H61.5611V13.362C62.4451 14.314 63.7031 14.773 65.1821 14.773C68.5821 14.773 71.1491 12.716 71.1491 9.265C71.1491 5.814 68.8541 3.74 65.1821 3.74ZM64.8081 12.223C62.7851 12.223 61.3231 11.186 61.3231 9.265C61.3231 7.344 62.7851 6.29 64.8081 6.29C66.8141 6.29 68.0891 7.293 68.0891 9.265C68.0891 11.237 66.5761 12.223 64.8081 12.223Z" fill="#FFFFFF"/>
<path d="M86.2194 9.265C86.2194 5.984 83.5844 3.74 79.8274 3.74C76.0704 3.74 73.4353 5.984 73.4353 9.248C73.4353 12.529 76.0704 14.773 79.8274 14.773C83.5844 14.773 86.2194 12.529 86.2194 9.265ZM79.8274 12.223C77.7874 12.223 76.4954 11.101 76.4954 9.248C76.4954 7.412 77.7874 6.29 79.8274 6.29C81.8674 6.29 83.1594 7.412 83.1594 9.248C83.1594 11.101 81.8674 12.223 79.8274 12.223Z" fill="#FFFFFF"/>
<path d="M99.9866 4.046H88.8516V14.467H91.7926V6.528H97.0456V14.467H99.9866V4.046Z" fill="#FFFFFF"/>
<path d="M109.812 4.046L105.987 12.631V4.046H103.046V14.467H107.789L111.546 5.865V14.467H114.487V4.046H109.812Z" fill="#FFFFFF"/>
<path d="M123.812 3.74C119.919 3.74 117.114 5.644 117.114 9.231C117.114 12.665 120.055 14.773 123.812 14.773C124.968 14.773 126.362 14.518 127.297 14.025V11.305C126.226 11.968 124.951 12.223 123.812 12.223C121.993 12.223 120.174 11.237 120.174 9.231C120.174 7.089 121.891 6.29 123.812 6.29C125.138 6.29 126.532 6.715 127.297 7.225V4.522C126.532 4.08 125.172 3.74 123.812 3.74Z" fill="#FFFFFF"/>
<path d="M136.69 4.046L132.865 12.631V4.046H129.924V14.467H134.667L138.424 5.865V14.467H141.365V4.046H136.69Z" fill="#FFFFFF"/>
<path d="M147.46 13.005C147.46 12.019 146.678 11.237 145.692 11.237C144.723 11.237 143.907 12.019 143.907 13.005C143.907 13.974 144.723 14.773 145.692 14.773C146.678 14.773 147.46 13.974 147.46 13.005Z" fill="#FFFFFF"/>
<path d="M156.574 3.74C155.095 3.74 153.837 4.216 152.953 5.168V4.046H150.012V18.7H152.953V13.362C153.837 14.314 155.095 14.773 156.574 14.773C159.974 14.773 162.541 12.716 162.541 9.265C162.541 5.814 160.246 3.74 156.574 3.74ZM156.2 12.223C154.177 12.223 152.715 11.186 152.715 9.265C152.715 7.344 154.177 6.29 156.2 6.29C158.206 6.29 159.481 7.293 159.481 9.265C159.481 11.237 157.968 12.223 156.2 12.223Z" fill="#FFFFFF"/>
<path d="M177.764 3.74C176.506 3.74 175.622 4.335 175.214 4.93V0H172.29V4.93C171.865 4.335 170.981 3.74 169.723 3.74C166.986 3.74 164.827 5.916 164.827 9.248C164.827 12.58 166.986 14.773 169.672 14.773C170.964 14.773 171.865 14.178 172.29 13.566V18.7H175.214V13.566C175.622 14.178 176.523 14.773 177.815 14.773C180.501 14.773 182.66 12.58 182.66 9.248C182.66 5.916 180.501 3.74 177.764 3.74ZM170.148 12.257C168.856 12.257 167.836 11.118 167.836 9.248C167.836 7.378 168.856 6.256 170.148 6.256C171.95 6.256 172.545 6.817 172.545 9.248C172.545 11.679 171.95 12.257 170.148 12.257ZM177.339 12.257C175.537 12.257 174.942 11.679 174.942 9.248C174.942 6.817 175.537 6.256 177.339 6.256C178.631 6.256 179.651 7.378 179.651 9.248C179.651 11.118 178.631 12.257 177.339 12.257Z" fill="#FFFFFF"/>
</svg>
